<?xml version="1.0" encoding="UTF-8"?>
<svg xmlns="http://www.w3.org/2000/svg" version="1.1" viewBox="0 0 1138.5 216.8">
  <defs>
    <style>
      .cls-1 {
        fill: #00755f;
      }
    </style>
  </defs>
  <!-- Generator: Adobe Illustrator 28.6.0, SVG Export Plug-In . SVG Version: 1.2.0 Build 709)  -->
  <g>
    <g id="Layer_1">
      <g>
        <path class="cls-1" d="M228.2,176.3c-22.3,0-35.9-46.3-40.9-66.6,70.4-11.8,100.9-100.7-12.3-100.7s-109.6,82.3-73.6,82.3,27.5-18,27.5-18c-25.4-.4-7.3-51.4,50-51.4h.4c-23.6,25.2-58,97.5-94.5,97.5s-23-16.8-23-16.8c-58.4,0-70.7,82.1-3.9,82.1s75.9-37.5,98.8-77.3c2.9,1.8,6.6,3,11.1,3.4-3.6,28.4-7,97,43,97s33-20.2,23.9-33.8c0,0-2.7,2.3-6.4,2.3ZM168.4,86c12.7-23.9,24.1-46.3,36.6-59.5,28.6,13.8,4.8,53.6-22.1,68.2-2.7-4.6-7-8-14.5-8.7Z"/>
        <path class="cls-1" d="M565.9,44.5c-3.2,4.5-12.9,18.4-23.2,35.5h-8.4l-7.5,10.9h9.6c-7.5,13-14.7,27-19.5,39.7-1.5,2.2-12.7,17.6-31.8,17.6s.7-49.6,13.8-49.6-1.1,15.2-9.8,21.1c18.8,19.1,53-39.6,1.8-39.6s-51.4,26.1-57.1,50.8c-1.9,2.5-11.8,14.6-18.4,14.6s-2-8.2,3.4-18.2c5.4-9.8,20.4-38,24.8-47.1h-36.4c-2.9,4.6-5.9,9.8-8.9,15.4-3.4-7.1-10.5-15.4-25.9-15.4-32.4,0-55,25.9-62.5,50.6-1.4,2-12.9,17.7-31.8,17.7s-11.4-5.2-11.1-12.1c45-3.8,63.6-56.1,16.6-56.1s-88.2,93.9-22.9,93.9,36.9-11.4,46.6-22.6c1.2,13,8.5,22.6,23.2,22.6s30.9-12.5,42.3-26.8c-3.6,12.3-2.7,26.8,16.4,26.8s34.3-13.3,43.6-25.2c2.3,14.4,12.9,25.2,35,25.2s33.1-9.1,43.2-19c-.4,11.4,4.4,19,17.9,19,30.4,0,63.6-43.6,44.8-43.6,0,0-11.4,15-18.8,15s5.7-27.9,20.7-54.5h7.5l7.1-10.9h-8.4c9.8-16.8,19.1-31.4,22-35.5h-38ZM291.8,98.8c5,0,.2,20.7-21.4,24.1,5.2-12.1,15-24.1,21.4-24.1ZM350.4,145.4c-11.4,0,13.2-46.6,27.5-46.6s3.8,5.4,3.8,8.2c-7.5,12.7-23.6,38.4-31.3,38.4Z"/>
        <path class="cls-1" d="M722.7,115.4c-.4,10.7-8.2,30-23.9,30s-18.6-31.3-4.8-62.1h1.6c82.7,0,100.4-74.3,50.7-74.3s-54.1,18.9-72.9,43.8c-5.4-9.5-4.8-21.6.7-29.6,0,0-6.6-12.1-24.5-12.1-35.4,0-45.9,51.1,8,67.3-22.3,45.2-20.2,95.7,30.7,95.7s73.9-68.6,34.3-58.6ZM749.1,22.2c15.5,0-8.7,45.9-45.9,45.9h-1.8c13.6-24.8,32.3-45.9,47.7-45.9Z"/>
        <path class="cls-1" d="M1120.2,130.4s-13.2,17.1-40.2,17.1-18.4-4.1-18.6-7.1c58.9-2,68-60.4,31.1-60.4s-25.2,8.2-35.5,18.8c8.9-18.2,19.6-37.3,32-54.3h-38c-16.8,23.7-36.7,60.7-45.7,86.4-2,2.8-13.1,17.4-31.7,17.4-26.6,0,.7-49.6,13.7-49.6s-1.1,15.2-9.8,21.1c18.8,19.1,53-39.6,1.8-39.6s-43.6,18.2-52.9,38.5c-2.2,1.4-8.2,5.1-16.6,7.6,7.7-23.2-.5-45.9-32.9-45.9s-59.3,25.8-64.4,50.3c-1.3,1.6-11.8,14.8-18.6,14.8-14.1,0,40.9-89.6,48.9-100.9h-38c-10.4,14.8-89.5,129.5-37,129.5s35-13.8,44.2-25.8c2.5,14.7,12.9,26,32.3,26s43-12.5,55-28.4c9.2-1.7,16.5-4.7,21.7-8.1-2,19.5,7.8,36.4,35.2,36.4s34.3-9.8,44.4-20.1c.8,23.1,24.3,23.2,31.4,20.1,1.8-11.8,6.4-23.8,12-34.5h.2c-5.2,13.2.5,34.5,23,34.5,41.3,0,71.8-43.6,53-43.6ZM874.5,125.4c-1.8-.5-3.6-1.2-5.4-2.1-6.1,2.1-10.5,11.1-5.7,17.3-3,3-6.3,4.8-8.9,4.8-13.8,0,9.8-46.6,22.1-46.6s4.6,14.1-2.1,26.6ZM1081.1,99c8.8,0-6.1,27.9-29.8,28.2,10.7-16.6,23.2-28.2,29.8-28.2Z"/>
      </g>
    </g>
  </g>
</svg>